<?xml version="1.0" standalone="no"?>
<!DOCTYPE svg PUBLIC "-//W3C//DTD SVG 20010904//EN"
 "http://www.w3.org/TR/2001/REC-SVG-20010904/DTD/svg10.dtd">
<svg version="1.0" xmlns="http://www.w3.org/2000/svg"
 width="1280.000000pt" height="640.000000pt" viewBox="0 0 1280.000000 640.000000"
 preserveAspectRatio="xMidYMid meet">
<g transform="translate(0.000000,640.000000) scale(0.100000,-0.100000)"
fill="#000000" stroke="none">
<path d="M5280 6034 c-14 -2 -198 -8 -410 -14 -470 -13 -737 -25 -980 -46
-195 -16 -389 -39 -396 -47 -3 -2 18 -21 45 -40 28 -20 58 -48 68 -63 17 -26
16 -27 -6 -45 -20 -17 -41 -19 -180 -18 -131 1 -185 -4 -341 -31 -210 -35
-321 -46 -374 -36 -64 12 -96 64 -62 99 8 8 58 22 110 32 165 29 127 52 -68
41 -66 -4 -164 -15 -216 -26 -52 -10 -137 -26 -188 -34 -114 -20 -223 -61
-322 -122 -94 -57 -161 -113 -370 -304 -91 -83 -209 -183 -263 -223 -54 -39
-136 -104 -183 -143 -46 -40 -125 -100 -175 -135 -386 -269 -510 -398 -574
-596 -17 -52 -14 -143 4 -143 5 0 25 42 46 93 85 207 196 348 324 409 63 30
74 32 231 39 91 4 219 15 285 24 169 22 566 31 624 13 87 -26 76 -66 -38 -147
-70 -49 -185 -155 -136 -125 298 182 347 202 362 144 5 -19 9 -17 49 20 87 80
85 48 -11 -181 -93 -218 -114 -306 -122 -504 -9 -238 16 -418 123 -882 69
-301 69 -297 19 -343 -36 -34 -54 -20 -86 70 -30 85 -48 103 -77 77 -25 -23
-29 -17 -71 98 -19 50 -67 166 -108 259 -103 235 -176 455 -198 593 -9 57 -23
63 -31 14 -11 -68 -27 -69 -64 -5 -42 75 -118 149 -182 179 -79 37 -182 35
-264 -4 -118 -56 -216 -184 -245 -322 -18 -84 -6 -190 34 -301 58 -159 59
-228 1 -228 -33 0 -110 72 -140 133 -36 71 -41 133 -15 192 11 26 21 49 21 50
0 1 -11 0 -24 -2 -55 -11 -58 76 -11 277 13 57 22 106 20 108 -5 5 -40 -63
-66 -130 -25 -64 -55 -98 -85 -98 -12 0 -46 19 -75 43 -91 74 -98 78 -134 84
-32 5 -39 2 -73 -34 -33 -35 -44 -41 -96 -47 -32 -3 -63 -9 -67 -12 -20 -12
-6 -34 44 -75 28 -23 69 -58 90 -78 l37 -35 0 31 c0 45 48 83 104 83 152 0
276 -135 276 -300 0 -95 -16 -96 -203 -17 -66 28 -96 53 -137 115 l-28 43 -11
-34 c-19 -55 -47 -73 -156 -97 -108 -24 -141 -40 -85 -40 121 -1 353 -22 395
-35 28 -8 79 -22 114 -30 136 -32 250 -121 315 -244 44 -85 77 -188 121 -381
61 -270 116 -404 202 -501 45 -49 101 -95 108 -87 2 2 -16 33 -41 68 -143 205
-260 525 -284 775 -6 61 -15 135 -20 166 -22 126 -3 259 75 533 25 87 44 166
42 175 -5 26 -94 -159 -102 -214 -4 -27 -13 -65 -21 -84 -14 -33 -15 -34 -32
-18 -14 15 -17 38 -17 150 0 131 0 133 34 194 36 67 89 126 136 151 51 28 149
22 218 -12 127 -62 249 -196 332 -364 26 -52 63 -158 93 -262 104 -366 194
-554 326 -679 63 -59 117 -86 191 -95 60 -8 150 13 213 50 l42 25 483 -96
c541 -108 759 -154 1222 -256 325 -72 340 -77 873 -264 73 -25 138 -45 144
-43 6 2 -29 25 -78 50 -49 26 -97 55 -107 66 -20 22 -70 46 -242 115 -127 51
-159 75 -119 91 9 4 62 11 118 16 154 16 256 31 256 40 0 14 -172 21 -295 12
-100 -8 -123 -7 -137 5 -21 18 -50 88 -83 194 l-25 84 5 -80 c7 -92 -8 -214
-27 -226 -68 -42 -420 12 -1262 196 -237 51 -501 107 -586 125 -85 17 -179 40
-207 51 -133 53 -224 191 -267 404 -9 44 -27 190 -41 325 -13 135 -33 289 -45
344 -35 172 -25 323 35 501 33 100 111 275 136 307 13 17 28 17 194 8 99 -5
277 -14 395 -20 411 -20 1172 -67 1379 -85 149 -13 221 -79 255 -236 9 -43 14
-54 15 -34 2 43 26 127 51 179 25 52 97 122 136 132 67 17 604 -29 1475 -126
860 -96 987 -124 2139 -464 231 -68 233 -70 128 -100 -32 -9 -58 -21 -58 -26
0 -19 49 -21 166 -10 66 7 131 12 145 12 74 -1 345 -120 514 -224 127 -79 335
-236 580 -437 116 -95 234 -184 263 -198 57 -28 92 -64 92 -96 0 -12 -23 -44
-55 -74 -30 -29 -55 -56 -55 -58 0 -3 12 -5 28 -5 42 0 92 -35 92 -65 0 -67
-238 -118 -530 -113 -80 1 -262 1 -405 0 -406 -4 -699 25 -1052 105 -41 9 -43
23 -17 122 26 100 29 131 15 131 -31 0 -93 -147 -117 -280 -19 -106 -11 -198
22 -248 l19 -27 8 60 c4 33 11 74 15 90 l8 30 224 3 c149 2 324 -4 515 -18
714 -49 946 -48 1262 5 28 5 39 17 74 77 52 88 108 150 157 174 21 10 74 21
122 24 47 4 121 17 164 29 189 51 366 3 495 -135 68 -72 103 -138 130 -244
l19 -75 10 40 c59 226 57 255 -20 275 -122 33 -228 108 -228 162 0 45 43 58
197 58 157 0 233 16 523 105 214 66 369 105 424 105 15 0 59 -16 97 -36 91
-48 179 -141 209 -221 30 -80 37 -198 16 -288 -19 -78 -74 -205 -89 -205 -5 0
-35 12 -65 27 -76 37 -178 42 -293 15 -47 -12 -173 -53 -279 -92 -106 -39
-226 -79 -267 -90 -101 -26 -218 -36 -238 -20 -12 10 -16 10 -19 -1 -28 -98
-89 -209 -113 -209 -8 0 -30 9 -47 19 -100 62 -263 66 -466 12 -380 -101 -427
-112 -548 -124 -216 -21 -499 -14 -697 16 -93 14 -233 36 -309 47 -77 12 -232
25 -345 30 -315 15 -456 54 -551 151 -33 34 -40 48 -40 81 0 45 -31 115 -38
85 -2 -10 4 -42 14 -72 14 -45 14 -57 4 -71 -21 -24 -65 -43 -141 -62 -39 -10
-70 -22 -70 -27 0 -6 26 -18 57 -27 31 -9 62 -22 67 -27 24 -24 -92 -111 -147
-111 -35 0 -92 53 -123 114 -14 28 -52 119 -84 203 -52 135 -88 215 -133 293
-8 14 -22 47 -31 74 -24 67 -81 148 -232 333 -197 239 -206 274 -60 224 31
-11 59 -16 61 -12 14 21 -82 76 -305 176 -57 26 -185 87 -284 135 -99 48 -200
93 -225 99 -83 19 -174 23 -249 12 -172 -27 -292 -90 -427 -225 -105 -105
-159 -200 -218 -384 -66 -206 -80 -294 -81 -517 0 -187 2 -207 28 -310 16 -60
48 -151 73 -202 40 -83 50 -113 41 -113 -12 0 -365 74 -477 100 -74 17 -389
94 -700 170 -624 154 -961 231 -1240 284 -254 48 -459 81 -450 72 8 -7 342
-99 545 -150 208 -52 445 -107 1030 -241 544 -124 1284 -311 1301 -327 2 -2
19 -59 38 -125 142 -491 370 -847 666 -1038 145 -94 243 -132 368 -141 84 -6
94 -4 342 61 495 129 656 199 825 357 85 79 145 169 145 217 1 84 58 153 155
186 147 51 514 -18 546 -102 9 -25 11 -26 97 -21 76 5 123 18 362 97 362 121
402 131 595 141 265 13 438 65 1060 315 396 159 420 167 721 250 241 66 324
96 324 114 0 6 -1 11 -2 11 -2 0 -42 4 -90 10 -145 15 -178 44 -115 104 84 79
423 206 551 206 33 0 45 -6 76 -40 29 -32 44 -40 72 -40 40 0 68 26 143 133
57 82 75 94 158 113 34 8 76 23 92 33 40 24 63 66 48 89 -43 69 -58 232 -30
310 l16 43 -27 11 c-286 120 -512 277 -862 603 -73 67 -100 99 -116 139 -68
168 -151 266 -295 351 -126 74 -255 113 -669 205 -80 18 -237 63 -350 101
-234 78 -343 108 -520 143 -286 58 -596 90 -1020 106 -276 10 -326 15 -530 45
-52 8 -194 26 -315 40 -268 32 -313 42 -440 105 -135 67 -236 146 -450 350
-281 268 -395 360 -526 418 -74 33 -114 75 -104 107 4 11 9 32 12 48 5 27 4
27 -46 27 -47 0 -54 3 -103 51 -114 111 -205 136 -573 159 -170 11 -243 25
-301 59 -30 18 -50 21 -137 20 -56 -1 -113 -3 -127 -5z m85 -73 c18 -7 17 -8
-7 -14 -60 -15 -831 -38 -843 -25 -8 8 185 29 335 38 182 10 490 10 515 1z
m310 -91 c199 -13 389 -34 521 -58 110 -20 130 -31 349 -196 269 -201 940
-780 940 -810 0 -8 -84 -10 -285 -8 -429 5 -853 -21 -1975 -123 -159 -14 -543
-35 -654 -35 l-125 0 -47 50 c-60 64 -103 148 -177 345 -74 199 -109 276 -156
340 -39 54 -48 47 -17 -13 10 -20 49 -120 86 -222 100 -278 130 -359 158 -422
14 -32 22 -60 17 -63 -15 -9 -58 13 -101 52 -94 85 -170 234 -289 573 -67 190
-137 369 -151 384 -12 13 -12 46 0 46 18 0 127 -91 155 -130 33 -44 42 -46 26
-6 -18 48 -12 120 13 157 52 77 139 109 301 109 61 0 192 5 291 11 495 29 865
35 1120 19z m-1910 -21 c0 -9 -13 -15 -32 -17 -38 -4 -43 10 -10 26 27 13 42
10 42 -9z m-1223 -109 c-4 -34 -20 -50 -53 -50 -42 0 -46 20 -10 52 38 34 67
33 63 -2z m-194 -2 c7 -7 12 -22 12 -35 0 -30 -45 -52 -190 -93 -148 -41 -226
-82 -264 -141 -31 -46 -104 -114 -365 -338 -289 -248 -485 -384 -572 -396 -49
-7 -64 1 -53 29 5 14 207 183 343 286 25 19 138 113 251 208 372 314 507 401
730 468 89 27 92 28 108 12z m1278 -37 c70 -31 95 -61 134 -161 18 -47 84
-195 147 -329 130 -281 191 -429 227 -555 33 -112 33 -124 -1 -133 -61 -17
-543 -7 -798 16 -140 13 -342 25 -460 26 -117 1 -228 7 -250 14 -101 28 -171
98 -202 199 -22 72 -22 228 1 331 9 41 15 75 13 77 -5 5 -86 -273 -99 -341 -6
-33 -16 -63 -21 -66 -15 -11 -66 11 -82 34 -21 30 -19 128 4 212 11 39 43 131
71 205 55 143 104 287 114 333 8 34 30 35 52 2 24 -37 27 -92 9 -175 -27 -127
-27 -137 3 -65 37 90 96 207 136 268 l31 47 87 0 c80 0 212 19 478 69 148 28
334 25 406 -8z m-1326 -161 c31 -31 30 -120 -1 -244 -31 -123 -158 -503 -172
-514 -26 -20 -97 -21 -227 -2 -74 11 -176 20 -227 20 -115 0 -185 15 -223 47
-87 73 12 189 440 514 69 52 148 109 175 126 115 73 197 91 235 53z m-899
-730 c31 -17 11 -32 -50 -38 -86 -8 -131 18 -83 48 20 12 102 6 133 -10z
m5064 -100 c0 -21 -67 -37 -255 -61 -200 -26 -232 -27 -237 -12 -9 24 158 62
357 82 109 11 135 10 135 -9z m1076 -25 c519 -49 1275 -173 1543 -254 88 -27
267 -77 396 -111 458 -120 656 -189 864 -298 125 -66 139 -81 111 -112 -53
-59 -159 -78 -485 -90 -314 -12 -374 -17 -475 -40 -44 -10 -140 -24 -214 -31
-126 -12 -141 -12 -267 9 -73 13 -188 36 -256 53 -149 36 -742 204 -1078 305
-782 234 -1034 296 -1141 280 -106 -16 -254 -17 -410 -2 -297 30 -620 82 -626
103 -5 14 -12 13 302 53 132 17 355 47 495 65 612 81 928 99 1241 70z m-5100
-43 c14 -12 20 -25 16 -35 -9 -24 -92 -24 -106 0 -25 46 43 72 90 35z m3267 2
c32 -9 27 -31 -10 -43 -52 -17 -205 -41 -300 -48 -74 -5 -88 -4 -88 9 0 24
105 65 210 81 42 7 164 7 188 1z m-658 -43 c42 -12 30 -35 -25 -49 -66 -17
-388 -13 -406 5 -10 10 -7 14 14 22 59 23 358 38 417 22z m-714 -32 c10 -18
-11 -31 -40 -23 -36 9 -34 34 3 34 17 0 33 -5 37 -11z m4871 -24 c553 -59 864
-120 1183 -234 49 -17 190 -49 330 -75 279 -52 356 -73 423 -116 50 -31 69
-64 60 -99 -5 -18 -13 -21 -57 -21 -28 0 -91 -11 -141 -25 -319 -89 -365 -85
-545 45 -135 97 -296 159 -693 264 -133 36 -287 81 -342 102 -55 20 -185 65
-290 101 -186 63 -231 83 -188 83 12 0 129 -11 260 -25z m2203 -570 c9 -91 65
-153 285 -318 148 -111 325 -256 325 -265 0 -4 23 -23 51 -42 71 -48 111 -96
107 -128 -4 -39 -54 -59 -226 -93 -160 -31 -192 -42 -192 -62 0 -65 -194 -119
-700 -192 -135 -20 -340 -51 -455 -70 -116 -19 -228 -35 -250 -35 -80 1 -254
96 -410 224 -38 32 -153 133 -255 226 -199 181 -327 287 -402 335 -66 41 -62
74 15 119 98 57 207 73 572 86 263 9 383 17 617 41 53 5 170 28 260 50 343 85
487 61 658 -111 65 -65 139 -126 189 -155 7 -4 -41 45 -108 110 -209 203 -249
293 -144 325 49 15 58 9 63 -45z m175 -66 c33 -40 67 -106 57 -113 -20 -12
-102 87 -102 122 0 30 14 27 45 -9z m-5100 -493 c316 -106 599 -340 810 -671
32 -49 82 -127 111 -171 73 -109 105 -182 186 -424 116 -346 188 -461 357
-568 l80 -51 -24 45 c-13 25 -41 58 -62 73 -86 63 -108 116 -65 152 12 9 72
38 134 64 62 26 126 56 141 67 l29 20 151 -21 c84 -12 276 -35 427 -51 393
-43 652 -88 683 -119 12 -12 14 -12 -107 -41 -106 -25 -153 -47 -137 -63 7 -7
39 -6 113 6 57 9 157 21 223 27 176 16 350 45 525 90 358 91 428 111 488 141
91 47 171 50 327 13 159 -38 275 -40 323 -5 29 20 37 22 56 12 19 -11 36 -6
126 38 57 28 113 51 124 51 28 0 86 -36 86 -54 0 -16 -50 -37 -250 -103 -405
-133 -812 -229 -1370 -323 -279 -47 -377 -68 -385 -81 -4 -5 11 -9 32 -9 52 0
293 28 345 39 24 6 47 6 52 1 19 -19 -88 -56 -464 -160 -140 -39 -293 -85
-340 -102 -217 -77 -326 -87 -560 -49 -69 11 -182 27 -251 35 -164 21 -207 35
-230 77 -33 62 233 201 461 239 78 14 104 25 78 35 -8 3 -96 -15 -194 -41
-154 -40 -194 -47 -284 -48 -89 -1 -112 2 -148 20 l-42 22 20 -33 c28 -46 25
-93 -11 -160 -25 -47 -30 -66 -25 -97 8 -48 -16 -152 -50 -222 -78 -160 -251
-301 -495 -405 -118 -50 -515 -165 -628 -181 -119 -18 -251 -9 -327 22 -372
153 -670 540 -794 1033 -52 208 -65 324 -65 620 0 251 2 276 23 350 63 221
244 490 491 728 50 48 85 87 78 87 -27 0 -165 -91 -231 -151 -226 -207 -378
-578 -414 -1003 -8 -101 -21 -117 -50 -59 -48 93 -68 261 -52 430 40 435 223
777 482 902 168 82 307 89 493 27z m5867 -367 c64 -14 169 -60 214 -94 40 -31
47 -31 59 -3 18 41 43 34 67 -19 33 -73 37 -219 8 -295 -24 -65 -67 -114 -119
-135 -49 -21 -56 -8 -36 75 21 88 17 211 -9 264 -30 62 -95 118 -183 160 -112
53 -112 70 -1 47z m-10070 -419 c46 -13 67 -44 41 -58 -44 -23 -80 -23 -135 1
-58 26 -73 40 -63 57 8 13 110 13 157 0z m9028 -560 c0 -14 -39 -32 -52 -24
-7 5 -5 11 7 21 22 15 45 17 45 3z m-875 -549 c-11 -11 -48 -31 -82 -45 -64
-27 -358 -106 -393 -106 -29 0 -25 17 8 34 54 28 413 134 457 135 29 1 29 1
10 -18z"/>
<path d="M6363 2632 c-108 -39 -186 -115 -252 -248 -171 -343 -136 -788 84
-1100 64 -89 191 -204 275 -248 71 -37 75 -38 159 -34 70 3 99 10 152 35 75
35 147 103 198 187 69 115 121 325 121 491 0 98 -27 292 -51 370 -71 232 -232
446 -394 526 -58 28 -80 33 -154 36 -65 3 -99 -1 -138 -15z m271 -72 c113 -56
205 -177 297 -391 103 -237 131 -523 73 -729 -48 -167 -180 -334 -290 -366
-134 -39 -261 1 -380 120 -119 119 -192 264 -255 506 -28 108 -32 141 -32 245
0 146 22 238 87 370 123 249 308 339 500 245z"/>
<path d="M3198 5893 c7 -3 16 -2 19 1 4 3 -2 6 -13 5 -11 0 -14 -3 -6 -6z"/>
<path d="M329 4002 c-20 -15 -59 -38 -88 -51 -28 -14 -51 -28 -51 -32 0 -10
105 -23 124 -16 10 4 62 128 53 127 -1 0 -18 -13 -38 -28z"/>
<path d="M4440 3718 c-14 -115 -25 -266 -26 -348 -1 -80 -5 -176 -9 -215 -7
-73 6 -169 58 -405 l23 -105 -4 136 c-4 106 -1 148 12 191 31 106 109 136 219
83 32 -15 79 -26 122 -30 l70 -6 -117 35 c-179 54 -274 108 -298 172 -7 18 -7
45 0 82 5 31 10 92 10 136 0 108 -23 476 -30 476 -3 0 -16 -91 -30 -202z"/>
<path d="M8625 3592 c-134 -63 -201 -295 -127 -438 58 -112 164 -187 473 -336
192 -93 277 -143 359 -208 21 -16 34 -19 78 -14 98 12 76 30 -174 139 -299
130 -387 204 -344 285 5 10 25 28 45 40 41 25 55 66 55 155 -1 246 -202 453
-365 377z m173 -102 c66 -47 114 -132 65 -113 -13 5 -15 3 -8 -13 30 -71 44
-127 45 -179 0 -102 -31 -175 -69 -159 -9 4 -48 7 -87 8 -80 1 -106 16 -130
73 -28 64 -7 173 45 239 15 19 21 41 21 78 0 95 44 120 118 66z m-164 -33 c20
-31 -30 -167 -56 -151 -7 4 -9 29 -5 70 9 95 33 126 61 81z"/>
<path d="M1333 3474 c-92 -45 -158 -141 -189 -271 -24 -103 -14 -318 20 -443
34 -123 113 -283 169 -345 42 -47 46 -49 98 -49 101 0 176 65 215 187 22 69
30 300 15 410 -29 202 -109 412 -190 495 -48 49 -68 52 -138 16z m80 -77 c35
-15 97 -79 121 -125 9 -17 28 -70 43 -119 26 -84 27 -98 27 -298 0 -194 -2
-216 -25 -289 -29 -95 -53 -117 -131 -124 -44 -3 -59 0 -88 20 -106 72 -170
281 -170 552 1 216 41 372 100 387 42 12 89 10 123 -4z"/>
<path d="M4492 2610 c0 -14 2 -19 5 -12 2 6 2 18 0 25 -3 6 -5 1 -5 -13z"/>
<path d="M2430 2387 c0 -51 -41 -136 -92 -192 -38 -41 -72 -66 -132 -94 -110
-52 -202 -74 -460 -111 -214 -30 -306 -54 -306 -81 0 -25 374 14 544 57 223
56 374 151 431 270 24 51 40 153 26 167 -8 8 -11 4 -11 -16z"/>
<path d="M11233 2225 c0 -22 2 -30 4 -17 2 12 2 30 0 40 -3 9 -5 -1 -4 -23z"/>
</g>
</svg>
