<?xml version="1.0" standalone="no"?>
<!DOCTYPE svg PUBLIC "-//W3C//DTD SVG 20010904//EN"
 "http://www.w3.org/TR/2001/REC-SVG-20010904/DTD/svg10.dtd">
<svg version="1.0" xmlns="http://www.w3.org/2000/svg"
 width="1280.000000pt" height="692.000000pt" viewBox="0 0 1280.000000 692.000000"
 preserveAspectRatio="xMidYMid meet">
<metadata>
Created by potrace 1.15, written by Peter Selinger 2001-2017
</metadata>
<g transform="translate(0.000000,692.000000) scale(0.100000,-0.100000)"
fill="#000000" stroke="none">
<path d="M5795 6911 c-203 -23 -325 -100 -615 -393 -111 -111 -357 -376 -546
-587 -9 -10 -11 -4 -7 31 12 105 -44 151 -187 152 -104 1 -140 -15 -221 -101
-64 -67 -94 -120 -110 -193 -14 -64 2 -138 36 -170 19 -18 25 -37 30 -95 4
-40 4 -91 0 -113 -6 -36 -11 -42 -38 -48 -62 -13 -806 -264 -1052 -354 -137
-51 -356 -134 -487 -185 -188 -75 -282 -105 -460 -150 -824 -207 -1275 -407
-1568 -695 -183 -178 -393 -536 -480 -815 -66 -209 -85 -362 -84 -655 1 -257
11 -339 52 -450 11 -30 35 -128 53 -217 33 -158 33 -164 16 -193 -16 -26 -16
-37 -6 -97 15 -89 53 -205 85 -259 39 -66 151 -164 235 -206 208 -104 773
-286 1249 -401 765 -187 1094 -250 1460 -281 461 -40 874 -29 1638 40 265 24
663 34 723 19 15 -4 37 -27 57 -60 112 -184 267 -279 589 -361 266 -67 528
-91 673 -60 304 64 626 402 815 856 33 79 100 274 109 316 4 17 26 49 49 72
44 43 131 79 1832 760 377 151 1108 453 1401 578 5 3 24 -17 42 -44 39 -61
106 -124 163 -152 150 -77 540 -140 684 -110 292 59 514 428 615 1020 11 63
36 207 55 320 19 113 46 239 60 280 66 194 145 722 145 978 0 58 -4 76 -19 91
-15 15 -22 44 -31 138 -43 461 -151 729 -322 803 -39 17 -67 21 -136 19 -74
-1 -149 11 -507 84 -448 91 -761 147 -994 177 -79 10 -147 23 -151 27 -4 4
-17 34 -30 67 -44 110 -141 216 -249 271 -177 89 -453 62 -602 -60 -30 -24
-69 -57 -88 -72 -19 -15 -55 -54 -79 -85 -44 -56 -47 -58 -92 -58 l-47 0 -7
58 c-12 106 -78 197 -179 248 -54 28 -224 74 -357 98 -237 43 -986 124 -1439
156 -349 24 -455 31 -721 45 -340 18 -857 27 -955 16z m930 -31 c460 -24 741
-43 1100 -76 763 -68 1210 -133 1397 -204 76 -28 158 -103 189 -172 21 -49 23
-66 23 -218 -1 -118 -7 -205 -23 -305 -12 -77 -26 -174 -32 -215 -11 -75 -5
-443 9 -560 l7 -55 36 2 37 2 -8 -36 c-5 -19 -12 -39 -17 -43 -15 -13 -441
-159 -466 -160 -5 0 -6 4 -3 8 16 26 156 708 196 957 59 364 63 519 17 597
-84 142 -220 191 -717 257 -510 68 -967 108 -1735 151 -444 26 -974 36 -1030
21 -31 -8 -5 -9 115 -5 283 9 1382 -51 2017 -111 681 -64 1067 -127 1205 -196
84 -42 142 -117 159 -204 10 -53 -5 -240 -37 -445 -26 -172 -122 -666 -176
-902 l-31 -136 -56 -7 c-31 -3 -65 -9 -76 -12 -17 -5 -16 -1 7 23 49 53 67
121 147 559 101 556 135 875 103 957 -18 46 -80 105 -133 127 -124 54 -474
118 -899 165 -804 90 -2243 159 -2420 117 -105 -26 -163 -64 -335 -224 -229
-212 -586 -608 -882 -977 -115 -142 -197 -236 -209 -238 -10 -1 -26 2 -34 8
-12 8 -7 18 31 57 25 26 134 156 242 288 225 276 477 557 716 798 306 309 417
388 589 417 90 15 604 10 977 -10z m-95 -145 c1071 -58 1660 -117 2100 -211
182 -39 254 -68 299 -119 44 -51 55 -101 47 -230 -15 -250 -171 -1163 -219
-1276 -8 -20 -31 -48 -50 -63 -33 -25 -45 -28 -159 -33 -244 -11 -849 45
-1928 177 -874 108 -2389 306 -2452 322 l-37 8 195 243 c258 320 523 618 763
857 265 264 341 319 471 340 74 12 630 4 970 -15z m3571 -380 c24 -13 79 -82
79 -100 0 -3 -20 -5 -44 -5 -44 0 -45 0 -74 60 -29 56 -29 60 -11 60 11 0 33
-7 50 -15z m-668 -81 c3 -4 -1 -16 -9 -29 -8 -12 -28 -58 -44 -101 l-29 -79
-1 108 0 107 38 0 c21 0 41 -3 45 -6z m759 -56 c27 -27 14 -33 -47 -24 -31 5
-44 12 -48 26 -4 17 0 20 34 20 27 0 46 -7 61 -22z m-384 -5 l21 -18 -26 -75
c-43 -127 -31 -257 27 -275 25 -8 25 -17 0 -40 -34 -31 -115 -24 -191 16 l-64
34 -3 65 c-5 114 55 261 120 293 43 22 91 21 116 0z m962 -39 c234 -33 1144
-204 1157 -218 2 -1 -25 -6 -60 -9 -35 -3 -115 -18 -178 -32 -156 -36 -212
-36 -269 -1 -134 81 -315 133 -702 202 -155 27 -157 28 -168 57 l-10 30 63 -7
c34 -4 109 -13 167 -22z m-559 -11 c14 -14 33 -222 25 -267 l-7 -39 -29 29
c-24 24 -33 47 -51 139 -12 60 -25 120 -30 134 -9 23 -9 24 37 18 25 -2 50 -9
55 -14z m484 -58 c271 -47 590 -128 652 -166 41 -26 73 -66 73 -92 0 -12 -21
-41 -47 -66 -40 -38 -72 -55 -188 -100 -140 -54 -140 -55 -255 -55 -109 -1
-121 -3 -230 -42 -63 -23 -123 -45 -132 -49 -26 -11 -23 23 8 96 51 123 52
162 5 397 l-18 92 21 0 c12 0 62 -7 111 -15z m-6252 -19 c57 -23 67 -40 67
-114 l0 -67 -156 -190 c-165 -202 -175 -209 -237 -186 -23 9 -27 16 -27 49 0
28 -8 50 -30 77 -71 90 -46 224 67 345 72 78 118 100 211 100 40 0 87 -6 105
-14z m5005 -170 c78 -39 111 -61 120 -81 14 -29 55 -50 122 -59 29 -4 156 -61
353 -159 169 -83 307 -154 307 -158 0 -3 -21 -12 -47 -20 l-48 -15 -43 33
c-74 56 -129 66 -372 67 -264 1 -281 -4 -336 -97 -43 -73 -80 -160 -109 -252
-18 -57 -26 -72 -48 -79 -15 -6 -29 -7 -32 -4 -15 14 -26 223 -23 414 3 141
10 250 23 336 11 71 21 128 23 128 1 0 51 -24 110 -54z m2616 15 c24 -5 -18
-21 -220 -84 -156 -48 -266 -77 -294 -77 -42 0 -45 2 -45 28 -1 15 -4 37 -9
50 -7 20 -4 22 29 22 20 0 86 11 148 25 62 13 135 29 162 34 57 10 186 12 229
2z m236 -17 c143 -43 263 -269 310 -589 23 -153 36 -325 26 -325 -6 0 -46 -27
-90 -59 -113 -85 -225 -137 -307 -143 -77 -6 -143 -33 -216 -89 -189 -146
-403 -551 -532 -1005 -69 -245 -86 -344 -105 -645 -14 -216 -23 -254 -69 -283
-51 -32 -1261 -531 -2367 -976 -652 -262 -1186 -476 -1188 -475 -1 1 11 31 27
66 81 179 120 395 128 705 10 390 -34 646 -152 874 -76 145 -164 237 -280 290
-257 118 -626 -12 -925 -326 -246 -258 -401 -560 -589 -1149 -106 -333 -138
-483 -190 -895 -18 -138 -39 -262 -48 -283 -9 -22 -31 -49 -47 -62 -55 -42
-103 -48 -270 -34 -194 15 -455 7 -801 -25 -458 -43 -616 -50 -1030 -51 -617
0 -821 26 -1585 201 -652 150 -1005 249 -1395 391 -219 79 -322 132 -398 203
-79 73 -120 149 -153 276 -26 105 -30 154 -13 171 17 17 13 68 -20 223 -33
156 -41 185 -64 240 -39 89 -51 520 -21 737 23 164 30 175 36 52 9 -164 46
-269 97 -269 42 0 77 57 136 223 67 187 131 347 201 500 l49 109 40 -7 c22 -3
43 -9 47 -13 4 -4 -18 -47 -49 -97 -109 -179 -193 -367 -208 -466 -13 -89 34
-178 114 -218 99 -50 392 -133 726 -206 888 -195 1325 -263 1515 -235 116 16
200 64 528 306 138 102 327 221 431 273 49 24 63 26 111 20 30 -4 68 -12 84
-18 30 -12 29 -12 -79 -67 -277 -141 -674 -408 -780 -525 -73 -82 -84 -152
-32 -204 68 -68 188 -80 647 -66 498 16 793 37 1070 76 243 34 622 66 890 75
291 10 367 19 428 55 55 33 38 78 -38 104 -56 19 -236 25 -345 12 -55 -7 -149
-16 -210 -20 l-110 -8 105 -1 c58 -1 159 5 225 13 176 21 363 -1 390 -45 12
-20 -29 -51 -86 -67 -35 -9 -144 -18 -304 -23 -293 -11 -454 -23 -735 -55
-113 -13 -284 -33 -380 -44 -236 -27 -406 -38 -784 -52 -528 -19 -697 -6 -756
56 -51 54 -14 148 93 237 98 82 386 288 403 288 2 0 -30 -42 -71 -92 -90 -111
-125 -176 -125 -235 0 -73 15 -77 270 -81 346 -6 880 23 1375 73 260 26 307
39 396 109 102 80 418 468 475 583 15 29 28 77 31 110 5 51 3 60 -17 78 -20
18 -36 20 -199 20 -97 -1 -230 -7 -296 -14 -304 -32 -949 -140 -1150 -193 -44
-11 -119 -39 -167 -61 -85 -39 -88 -39 -125 -24 -21 8 -57 18 -80 22 l-43 7
173 88 c94 49 224 111 287 138 63 28 156 69 205 92 486 226 886 375 2150 801
855 289 1097 366 1660 530 335 98 658 199 746 234 32 12 120 -221 155 -410 16
-86 19 -149 18 -460 -1 -240 -7 -430 -18 -570 -16 -204 -68 -730 -83 -849 l-8
-58 -175 -77 c-97 -42 -205 -94 -240 -116 -83 -49 -192 -159 -256 -255 -159
-239 -173 -330 -49 -317 56 6 98 21 510 190 154 63 503 206 775 317 272 111
621 254 775 317 586 239 892 362 950 379 37 11 52 20 40 22 -30 4 -160 -45
-678 -257 -254 -104 -685 -280 -957 -391 -272 -111 -580 -237 -685 -280 -104
-43 -296 -121 -425 -174 -310 -126 -370 -137 -370 -65 0 37 69 171 138 269
120 169 198 224 509 360 l133 59 0 -53 c0 -64 27 -106 67 -106 15 0 240 88
502 196 947 391 1400 591 1459 647 13 12 44 64 69 114 l46 92 80 31 c44 17 98
35 120 39 49 12 59 21 21 21 -16 -1 -69 -16 -119 -35 -49 -19 -90 -33 -91 -32
-2 1 13 47 32 102 49 139 95 329 153 620 65 330 82 461 88 694 8 297 -13 403
-108 546 -52 78 -168 193 -231 229 -21 11 -38 23 -38 26 0 3 69 29 153 59 185
65 290 113 314 144 14 18 32 25 74 29 31 4 161 39 290 79 341 105 368 110 459
83z m-820 -70 c38 -99 -11 -138 -303 -243 -89 -33 -169 -62 -178 -66 -10 -4
-19 2 -26 18 -11 24 -10 25 170 96 100 39 196 81 213 93 44 31 74 79 74 116 0
30 2 32 20 22 12 -6 25 -22 30 -36z m-1092 -154 c78 -83 142 -155 142 -159 0
-7 -134 -61 -151 -61 -3 0 -6 21 -7 48 -5 107 -23 145 -104 224 -54 52 -58 59
-46 77 7 12 15 21 18 21 3 0 70 -68 148 -150z m580 -78 c17 -5 -63 -39 -315
-134 l-338 -126 -22 26 c-12 15 -18 30 -15 33 8 7 409 153 482 176 88 28 165
37 208 25z m-10 -63 c7 -12 12 -22 10 -24 -2 -1 -142 -54 -312 -116 -294 -108
-309 -112 -322 -94 -8 10 -12 20 -11 22 4 3 609 232 617 232 3 1 11 -8 18 -20z
m-6778 -45 c0 -8 -71 -88 -82 -92 -4 -2 -8 19 -8 47 l0 51 45 0 c25 0 45 -3
45 -6z m6870 -30 c148 -99 273 -272 307 -427 24 -109 21 -425 -6 -632 -22
-167 -104 -587 -147 -760 -33 -130 -100 -336 -116 -357 -7 -8 -87 -46 -178
-83 -842 -343 -1416 -580 -1722 -711 -108 -46 -198 -84 -200 -84 -2 0 4 73 14
163 68 624 91 968 91 1342 0 263 -2 314 -21 415 -26 141 -63 263 -108 354 -19
38 -33 70 -32 71 10 7 381 135 384 132 2 -2 -11 -23 -28 -47 -88 -115 -88
-120 -3 -215 95 -105 157 -126 245 -82 56 28 76 67 125 237 20 68 37 126 40
128 2 2 48 7 102 12 129 11 236 34 349 75 180 64 230 109 221 200 -2 28 -6 56
-8 63 -3 9 84 45 281 118 157 57 294 108 305 114 34 15 48 11 105 -26z m-6989
-108 c-47 -50 -148 -94 -516 -228 -324 -117 -677 -271 -1055 -460 -564 -281
-712 -367 -1110 -641 -296 -204 -484 -366 -612 -528 -34 -44 -65 -79 -69 -79
-3 0 -32 12 -63 26 l-56 26 32 41 c154 198 244 296 442 477 178 161 499 369
902 583 329 174 475 236 1049 447 208 77 972 336 1040 353 37 9 39 7 16 -17z
m136 -86 c166 -26 1624 -216 2173 -284 931 -115 995 -123 1464 -166 242 -22
441 -42 443 -44 10 -10 -133 -104 -222 -147 -126 -60 -242 -102 -850 -309
-110 -38 -360 -123 -555 -190 -195 -67 -510 -175 -700 -240 -466 -159 -548
-189 -966 -355 -533 -211 -707 -287 -1229 -535 -159 -76 -312 -145 -340 -155
-75 -25 -188 -34 -290 -24 -205 20 -1009 148 -1295 205 -596 119 -1022 215
-1072 240 -36 19 -61 67 -53 104 8 36 87 140 179 238 135 142 318 284 675 521
248 166 336 217 676 394 500 260 903 441 1319 592 258 94 379 143 441 178 40
23 40 23 87 5 26 -10 78 -22 115 -28z m5140 -332 c-5 -20 -35 -34 -212 -97
-199 -72 -206 -73 -225 -56 -11 10 -20 21 -20 24 0 3 37 17 81 30 45 14 147
48 228 77 80 28 148 50 150 48 2 -2 1 -14 -2 -26z m3337 -143 c-1 -179 -19
-351 -60 -575 -25 -135 -70 -324 -82 -347 -4 -6 -6 82 -4 196 6 393 -48 611
-170 690 l-37 24 60 28 c69 33 188 110 215 140 12 13 28 19 48 17 l31 -3 -1
-170z m-3790 -38 c-31 -18 -344 -117 -654 -207 -585 -171 -743 -220 -1510
-477 -1403 -469 -1800 -615 -2388 -882 -123 -56 -226 -101 -229 -101 -4 0
-110 -52 -237 -116 l-229 -116 -56 7 -56 8 145 69 c308 148 583 274 814 373
244 104 797 323 1000 397 124 45 1344 463 2091 717 399 136 560 209 680 307
l55 44 182 1 c101 0 224 6 273 13 85 12 91 11 113 -8 20 -18 21 -21 6 -29z
m3456 -6 c76 -40 127 -144 156 -318 19 -112 20 -523 2 -678 l-13 -110 -2 70
c-12 339 -66 561 -173 713 -78 110 -162 161 -312 186 l-37 7 42 38 c48 44 109
83 152 99 50 18 146 14 185 -7z m-10150 -35 c0 -2 -33 -21 -72 -41 -307 -158
-499 -266 -660 -371 -237 -156 -307 -207 -443 -329 -154 -139 -232 -221 -348
-368 l-102 -129 -40 7 c-22 3 -44 10 -49 15 -5 5 3 39 19 82 53 143 125 363
125 385 0 15 -6 23 -17 23 -37 0 -279 -228 -346 -324 -51 -75 -69 -124 -97
-256 -35 -167 -29 -293 21 -472 12 -44 11 -53 -14 -125 -55 -157 -110 -186
-149 -80 -47 124 -47 348 -2 482 71 213 229 496 383 687 253 314 721 539 1597
767 104 27 190 50 192 50 1 1 2 -1 2 -3z m9871 -130 c122 -28 216 -111 285
-251 78 -158 114 -349 114 -605 -1 -373 -80 -747 -220 -1035 -94 -194 -189
-303 -320 -368 -64 -32 -66 -32 -215 -32 -158 1 -249 13 -423 60 -50 13 -111
34 -135 46 -46 24 -142 117 -169 165 l-17 30 177 74 c97 40 187 82 199 93 43
38 52 76 63 268 16 277 37 413 101 647 35 127 51 147 20 26 -124 -489 -67
-1049 128 -1266 73 -82 169 -116 241 -85 35 14 35 14 -30 10 -44 -4 -76 -1
-100 9 -260 109 -367 734 -226 1323 105 434 316 755 522 789 37 7 68 0 138
-29 14 -6 17 -5 12 3 -13 21 -77 42 -128 42 -70 0 -148 -40 -222 -114 -73 -72
-111 -126 -177 -250 -76 -142 -57 -88 30 89 81 163 136 257 199 333 39 48 57
51 153 28z m-460 -623 c-12 -20 -14 -14 -5 12 4 9 9 14 11 11 3 -2 0 -13 -6
-23z m-10991 8 c0 -12 -87 -267 -133 -391 -20 -52 -65 -158 -100 -235 -35 -77
-88 -202 -117 -278 -34 -87 -56 -133 -61 -125 -5 7 -18 56 -30 108 -25 111
-22 223 11 380 37 177 110 283 320 467 93 81 110 92 110 74z m32 -544 l53 -24
-3 -45 c-3 -39 0 -50 25 -77 33 -38 117 -62 455 -135 633 -136 904 -186 1423
-266 606 -93 677 -97 825 -47 61 20 86 24 131 19 l57 -7 -137 -79 c-124 -73
-215 -135 -491 -336 -147 -107 -241 -157 -324 -171 -198 -33 -654 37 -1566
240 -381 85 -657 169 -718 218 -80 65 -92 146 -41 290 39 109 61 155 157 316
41 70 81 127 88 127 8 0 37 -11 66 -23z m6740 -158 c212 -45 381 -251 462
-561 102 -394 79 -953 -54 -1284 -29 -72 -97 -181 -107 -170 -2 2 5 46 16 98
44 208 55 315 55 553 0 199 -3 247 -23 355 -82 438 -276 711 -572 805 -96 30
-248 65 -284 65 -45 0 -26 16 73 63 167 78 307 103 434 76z m3673 -64 c-38
-85 -74 -134 -119 -160 -59 -35 -314 -151 -606 -277 -306 -132 -1259 -525
-1280 -528 -59 -9 -85 26 -75 99 l7 49 191 83 c253 108 513 216 1147 476 412
169 729 300 757 312 1 1 -9 -24 -22 -54z m-4097 -105 c118 -24 249 -63 307
-93 217 -110 374 -366 446 -724 27 -138 37 -455 20 -629 -77 -752 -465 -1435
-916 -1610 -61 -24 -88 -28 -207 -32 -203 -6 -404 22 -633 90 -196 58 -281
101 -382 192 -48 43 -133 157 -133 177 0 5 35 9 78 9 95 0 152 25 195 86 25
36 30 59 57 274 62 481 110 693 247 1085 160 460 274 685 461 907 113 136 308
302 342 293 8 -2 61 -13 118 -25z m-1223 -14 c17 -26 14 -67 -11 -140 -17 -47
-134 -210 -265 -367 -170 -204 -246 -270 -344 -302 -103 -34 -782 -88 -1330
-108 -341 -12 -477 -9 -527 10 -58 22 -44 97 41 218 95 133 156 194 254 252
109 64 435 223 492 239 188 54 699 145 1070 191 220 28 217 27 422 29 l183 2
15 -24z"/>
<path d="M12275 5854 c-95 -23 -135 -48 -135 -83 0 -5 26 -47 58 -93 31 -46
91 -150 132 -233 85 -169 88 -172 172 -136 64 27 82 64 75 150 -3 37 -16 98
-28 136 -27 82 -112 212 -154 236 -33 19 -89 30 -120 23z m108 -33 c102 -67
210 -335 177 -437 -10 -30 -22 -40 -65 -60 -29 -13 -59 -22 -68 -18 -8 3 -49
74 -90 157 -41 84 -98 183 -126 222 -28 38 -51 79 -51 91 0 21 15 30 100 58
35 11 97 5 123 -13z"/>
<path d="M753 2510 c-63 -28 -67 -45 -54 -200 17 -200 17 -193 -21 -185 -18 4
-134 41 -257 81 -123 41 -232 72 -242 69 -30 -10 -37 -53 -28 -185 18 -264 60
-411 164 -570 113 -175 225 -257 472 -341 481 -165 1068 -314 1603 -405 109
-19 195 -27 290 -28 130 -1 137 0 180 26 62 37 120 95 141 143 53 120 104 435
88 549 -10 74 -45 127 -101 154 -27 13 -175 45 -408 86 -201 36 -417 76 -480
89 l-115 23 -8 204 c-4 113 -13 217 -18 232 -6 15 -25 33 -42 41 -18 8 -133
34 -257 56 -347 64 -522 99 -680 137 -80 18 -154 36 -165 38 -11 3 -39 -3 -62
-14z m-406 -296 c119 -42 131 -48 123 -65 -24 -43 3 -226 51 -350 66 -171 174
-290 334 -368 278 -137 1301 -400 1755 -452 144 -16 302 -8 364 20 35 15 47
17 43 7 -3 -8 -11 -33 -18 -56 -17 -57 -88 -133 -155 -166 -54 -26 -58 -27
-197 -21 -259 10 -879 138 -1433 297 -228 66 -526 166 -594 200 -239 120 -400
371 -439 685 -20 157 -24 284 -11 300 18 22 32 20 177 -31z m281 -90 c46 -14
85 -31 87 -37 2 -7 6 -56 10 -109 l6 -97 -56 19 c-62 21 -183 79 -190 90 -8
13 -8 147 0 160 8 13 20 11 143 -26z m-80 -188 c26 -13 76 -34 112 -47 74 -26
80 -32 80 -76 0 -62 37 -87 205 -137 276 -82 623 -173 845 -220 107 -23 117
-24 148 -9 35 17 65 51 56 65 -8 13 7 11 201 -27 374 -72 681 -115 821 -115
l64 0 -5 -42 c-14 -105 -14 -104 -57 -128 -91 -51 -299 -36 -788 56 -556 105
-1298 304 -1558 416 -87 38 -94 44 -117 88 -19 37 -65 178 -65 197 0 7 13 2
58 -21z m1992 -241 c223 -40 416 -78 430 -83 59 -24 99 -85 107 -168 l6 -54
-100 0 c-107 0 -233 15 -474 55 -150 25 -451 81 -496 92 -22 5 -23 9 -23 133
l0 128 73 -15 c39 -7 254 -47 477 -88z m-1869 -39 c196 -90 904 -284 1429
-390 402 -81 532 -100 720 -100 151 -1 178 1 200 17 13 9 27 17 31 17 4 0 1
-33 -7 -72 -15 -81 -36 -106 -104 -127 -53 -16 -297 -14 -414 4 -380 57 -1054
223 -1451 357 -214 72 -307 121 -398 212 -38 38 -94 116 -83 116 2 0 36 -15
77 -34z"/>
<path d="M3635 1259 c-91 -13 -155 -30 -155 -41 0 -6 8 -7 18 -3 31 12 156 33
212 35 30 2 202 2 383 1 l328 -1 -14 -27 c-17 -33 -77 -246 -77 -272 0 -10 9
-26 21 -37 18 -17 41 -19 170 -22 135 -4 308 8 367 24 31 9 28 -3 -16 -61 -27
-36 -56 -60 -103 -83 -59 -31 -79 -35 -215 -47 -289 -26 -595 -38 -855 -33
-145 3 -253 1 -241 -3 44 -16 408 -22 642 -10 649 34 694 45 796 184 84 114
156 297 141 358 -4 14 -18 31 -32 37 -31 14 -1272 15 -1370 1z m1334 -5 c52
-11 64 -39 45 -110 -23 -90 -74 -195 -100 -204 -75 -29 -499 -44 -544 -20 -12
7 -20 21 -20 38 0 36 58 241 76 269 15 24 -15 22 405 31 59 1 121 -1 138 -4z"/>
<path d="M11141 5060 c-134 -74 -161 -111 -161 -222 0 -65 3 -81 20 -98 25
-25 42 -25 112 -1 61 21 86 35 164 93 78 58 86 93 42 181 -43 85 -86 97 -177
47z m163 -53 c26 -52 32 -92 18 -113 -18 -28 -146 -114 -197 -133 -108 -40
-130 -26 -130 85 0 88 14 110 106 172 115 76 160 74 203 -11z"/>
<path d="M11122 5011 c-72 -47 -92 -81 -92 -154 0 -58 19 -87 57 -87 30 0 133
55 176 94 45 43 48 80 12 143 -22 37 -30 43 -59 43 -21 0 -54 -14 -94 -39z
m115 21 c12 -8 53 -89 53 -107 0 -5 -4 -16 -9 -24 -8 -12 -12 -12 -26 2 -25
26 -67 20 -139 -17 -36 -19 -68 -31 -70 -27 -3 4 -1 25 4 47 10 43 48 81 114
113 46 22 56 24 73 13z m4 -138 c11 -14 8 -20 -21 -45 -70 -57 -162 -76 -168
-34 -2 16 12 28 70 57 82 42 100 45 119 22z"/>
<path d="M12141 4259 c-116 -35 -239 -188 -324 -404 -166 -422 -149 -971 37
-1174 97 -105 206 -96 329 26 165 164 281 508 294 873 8 228 -15 377 -81 515
-63 132 -157 193 -255 164z m112 -22 c38 -17 98 -81 126 -136 37 -71 70 -206
81 -331 34 -370 -89 -835 -274 -1037 -112 -123 -213 -141 -307 -56 -178 161
-213 680 -74 1100 111 335 295 523 448 460z"/>
<path d="M12125 4211 c-101 -47 -219 -221 -294 -434 -67 -191 -100 -455 -82
-663 12 -139 30 -214 72 -304 68 -147 170 -196 275 -135 91 54 198 225 264
422 149 450 92 1013 -114 1112 -52 26 -70 26 -121 2z m114 -15 c87 -45 148
-175 176 -369 51 -359 -45 -799 -228 -1043 -63 -82 -117 -119 -177 -119 -235
0 -330 593 -173 1080 85 263 235 465 346 465 15 0 41 -7 56 -14z"/>
<path d="M1428 2923 c-22 -24 -50 -133 -46 -176 2 -27 9 -34 38 -43 69 -23
190 -39 208 -28 20 13 59 104 68 161 5 36 3 43 -16 53 -30 16 -120 39 -183 46
-43 5 -55 3 -69 -13z m147 -13 c122 -27 125 -31 95 -125 -34 -110 -40 -113
-152 -91 -128 24 -132 27 -124 87 8 60 33 131 49 141 17 11 32 10 132 -12z"/>
<path d="M1465 2898 c-8 -24 -35 -149 -35 -164 0 -21 38 -17 50 7 8 14 19 19
38 17 23 -2 27 -8 25 -30 -1 -23 2 -28 21 -28 19 0 27 12 52 82 16 45 30 85
32 89 2 4 -4 9 -13 12 -11 5 -22 -8 -40 -43 -21 -42 -30 -50 -53 -50 -41 0
-50 15 -44 70 4 42 2 50 -12 50 -9 0 -19 -6 -21 -12z m21 -42 c-8 -52 9 -76
54 -76 33 0 52 16 70 59 7 17 16 31 21 31 5 0 3 -12 -4 -27 -8 -16 -22 -52
-31 -80 -19 -58 -33 -68 -38 -25 -2 22 -8 28 -35 30 -24 2 -35 -2 -45 -17 -18
-29 -42 -28 -35 2 3 12 11 50 18 85 15 70 35 86 25 18z"/>
<path d="M7110 3033 c-38 -7 -139 -56 -204 -97 -74 -47 -228 -196 -299 -289
-165 -215 -295 -479 -376 -763 -224 -779 -61 -1597 357 -1801 64 -31 85 -36
160 -39 l87 -3 -69 9 c-145 18 -232 64 -336 177 -130 141 -223 368 -265 650
-20 134 -20 462 0 609 39 301 112 544 241 804 109 218 225 382 366 516 157
149 280 210 458 227 19 2 6 4 -30 4 -36 0 -76 -2 -90 -4z"/>
<path d="M7084 2587 c-135 -45 -305 -189 -412 -352 -111 -167 -202 -390 -248
-609 -35 -167 -45 -456 -19 -606 43 -259 157 -463 302 -543 136 -73 307 -43
463 82 262 210 451 633 491 1100 36 421 -103 805 -327 908 -70 32 -185 41
-250 20z m216 -24 c340 -120 456 -797 240 -1406 -80 -227 -173 -382 -314 -522
-106 -105 -166 -143 -267 -170 -76 -21 -124 -19 -199 7 -92 32 -189 129 -248
249 -116 234 -142 595 -67 924 84 367 268 690 480 840 81 58 117 74 189 90 68
15 119 11 186 -12z"/>
<path d="M7110 2534 c-82 -22 -155 -69 -245 -159 -208 -206 -353 -531 -400
-898 -57 -444 55 -830 277 -952 48 -27 62 -30 143 -30 82 0 96 3 159 34 85 42
212 160 284 264 194 281 302 668 289 1042 -5 168 -20 257 -62 376 -86 246
-260 372 -445 323z m202 -34 c76 -35 142 -109 193 -213 221 -457 59 -1279
-323 -1638 -195 -183 -391 -193 -536 -27 -49 57 -105 161 -130 248 -46 155
-60 448 -31 642 51 339 191 650 383 846 76 78 125 113 209 148 72 31 163 29
235 -6z"/>
</g>
</svg>
